# xmcd
#
# Track frame offsets:
#	150
#	31751
#	56477
#	86762
#	114044
#	138210
#	167277
#	199729
#	241267
#	275918
#
# Disc length: 4345 seconds
#
# Revision: 0
# Processed by: cddbd v1.5.2PL0 Copyright (c) Steve Scherf et al.
# Submitted via: EasyCDDAExtractor 12.0.1.1
#
DISCID=7a10f70a
DTITLE=Sayan - Sayaner Gaan
DYEAR=2009
DGENRE=Bangla Band
TTITLE0=Swopner Doinno
TTITLE1=Tajjob Bone Jai
TTITLE2=Amii Bangladesh
TTITLE3=Jonotar Beyadobi
TTITLE4=Duchokh Diyei Dekho
TTITLE5=Gaan Papi
TTITLE6=Kobiyana
TTITLE7=Ekhanei Sukh Chilo Akdin
TTITLE8=Oth Mon, Oth Na
TTITLE9=Bhoy Peyona Tumi
EXTD=
EXTT0=
EXTT1=
EXTT2=
EXTT3=
EXTT4=
EXTT5=
EXTT6=
EXTT7=
EXTT8=
EXTT9=
PLAYORDER=
